<svg width="18" height="18" viewBox="0 0 18 18" fill="none" xmlns="http://www.w3.org/2000/svg">
<path d="M9.15481 0.459961C4.58876 0.459961 0.886844 4.13293 0.886844 8.66417C0.886844 10.2142 1.32038 11.6638 2.07327 12.9005L0.581055 17.3021L5.15865 15.8479C6.34316 16.4977 7.70545 16.8684 9.15481 16.8684C13.7215 16.8684 17.4232 13.1949 17.4232 8.66417C17.4232 4.13293 13.7215 0.459961 9.15481 0.459961ZM13.2662 11.7799C13.0717 12.2621 12.192 12.7022 11.8038 12.7224C11.4161 12.743 11.405 13.023 9.29102 12.1046C7.1773 11.1861 5.9056 8.95259 5.80534 8.80876C5.705 8.66545 4.98654 7.64158 5.0253 6.6112C5.06433 5.58064 5.62857 5.09443 5.82996 4.89222C6.03113 4.6897 6.26177 4.65342 6.4026 4.65113C6.56906 4.64842 6.67688 4.64616 6.80008 4.65071C6.92316 4.65537 7.10805 4.62496 7.26812 5.05068C7.42812 5.47635 7.81109 6.52259 7.86008 6.62921C7.90902 6.73594 7.93933 6.85951 7.86391 6.99654C7.78827 7.13387 7.74955 7.21966 7.63981 7.33801C7.52948 7.45635 7.40771 7.60274 7.30929 7.69323C7.19951 7.79342 7.08485 7.90271 7.20027 8.11688C7.3156 8.3309 7.71354 9.03252 8.31978 9.61071C9.09891 10.354 9.77083 10.6005 9.9776 10.7129C10.1849 10.8258 10.3087 10.8132 10.4372 10.6779C10.5652 10.5426 10.9876 10.086 11.1363 9.8821C11.285 9.67767 11.4243 9.71771 11.6153 9.79455C11.8062 9.87169 12.8243 10.417 13.0316 10.5295C13.2388 10.6419 13.3772 10.6998 13.4267 10.7889C13.4762 10.8784 13.4606 11.2976 13.2662 11.7799Z" fill="#333333"/>
</svg>
