<svg width="16" height="11" viewBox="0 0 16 11" fill="none" xmlns="http://www.w3.org/2000/svg">
<path d="M14.6667 1.54818H10V0.214844H14.6667V1.54818ZM15.8173 8.21484C15.5227 9.07951 14.4647 10.2148 12.4167 10.2148C10.3673 10.2148 8.70733 9.06218 8.70733 6.43151C8.70733 3.82484 10.2573 2.48484 12.3513 2.48484C14.406 2.48484 15.6607 3.67284 15.9347 5.43551C15.9867 5.77284 16.0073 6.22751 15.998 6.86218H10.6467C10.7333 9.00284 12.9687 9.07018 13.7053 8.21484H15.8173ZM10.6933 5.54818H14.0033C13.9333 4.51684 13.246 4.06884 12.352 4.06884C11.3747 4.06884 10.834 4.58084 10.6933 5.54818ZM4.31067 10.2068H0V0.228844H4.63533C8.286 0.282844 8.35533 3.85818 6.44867 4.83284C8.756 5.67284 8.83333 10.2068 4.31067 10.2068ZM2 4.21484H4.38933C6.06133 4.21484 6.32667 2.21484 4.18133 2.21484H2V4.21484ZM4.26067 6.21484H2V8.22551H4.22733C6.264 8.22551 6.13933 6.21484 4.26067 6.21484Z" fill="#333333"/>
</svg>
