<svg width="16" height="17" viewBox="0 0 16 17" fill="none" xmlns="http://www.w3.org/2000/svg">
<path d="M7.99421 6.79431C6.84734 6.79431 5.9114 7.73025 5.9114 8.87712C5.9114 10.024 6.84734 10.9599 7.99421 10.9599C9.14109 10.9599 10.077 10.024 10.077 8.87712C10.077 7.73025 9.14109 6.79431 7.99421 6.79431ZM14.2411 8.87712C14.2411 8.01462 14.2489 7.15994 14.2005 6.299C14.152 5.299 13.9239 4.4115 13.1927 3.68025C12.4598 2.94744 11.5739 2.72087 10.5739 2.67244C9.7114 2.624 8.85671 2.63181 7.99578 2.63181C7.13328 2.63181 6.27859 2.624 5.41765 2.67244C4.41765 2.72087 3.53015 2.949 2.7989 3.68025C2.06609 4.41306 1.83953 5.299 1.79109 6.299C1.74265 7.1615 1.75046 8.01619 1.75046 8.87712C1.75046 9.73806 1.74265 10.5943 1.79109 11.4552C1.83953 12.4552 2.06765 13.3427 2.7989 14.074C3.53171 14.8068 4.41765 15.0334 5.41765 15.0818C6.28015 15.1302 7.13484 15.1224 7.99578 15.1224C8.85828 15.1224 9.71296 15.1302 10.5739 15.0818C11.5739 15.0334 12.4614 14.8052 13.1927 14.074C13.9255 13.3412 14.152 12.4552 14.2005 11.4552C14.2505 10.5943 14.2411 9.73962 14.2411 8.87712ZM7.99421 12.0818C6.22078 12.0818 4.78953 10.6506 4.78953 8.87712C4.78953 7.10369 6.22078 5.67244 7.99421 5.67244C9.76765 5.67244 11.1989 7.10369 11.1989 8.87712C11.1989 10.6506 9.76765 12.0818 7.99421 12.0818ZM11.3302 6.28962C10.9161 6.28962 10.5817 5.95525 10.5817 5.54119C10.5817 5.12712 10.9161 4.79275 11.3302 4.79275C11.7442 4.79275 12.0786 5.12712 12.0786 5.54119C12.0787 5.63951 12.0594 5.73689 12.0219 5.82775C11.9843 5.91861 11.9292 6.00116 11.8597 6.07069C11.7901 6.14021 11.7076 6.19534 11.6167 6.2329C11.5259 6.27047 11.4285 6.28975 11.3302 6.28962Z" fill="#333333"/>
</svg>
